<svg xmlns="http://www.w3.org/2000/svg" xmlns:xlink="http://www.w3.org/1999/xlink" width="128" height="128"><defs><linearGradient id="s" gradientUnits="userSpaceOnUse" x1="69.009" y1="487.904" x2="180.208" y2="487.904" gradientTransform="translate(-60 -378)"><stop offset="0" stop-color="#c0bfbc"/><stop offset=".065" stop-color="#dcdbd8"/><stop offset=".11" stop-color="#c0bfbc"/><stop offset=".846" stop-color="#c0bfbc"/><stop offset=".923" stop-color="#deddda"/><stop offset="1" stop-color="#c0bfbc"/></linearGradient><linearGradient id="t" gradientUnits="userSpaceOnUse" x1="144" y1="-84" x2="144" y2="366.066" gradientTransform="matrix(.25 0 0 .25 4 43)"><stop offset="0" stop-color="#edece9"/><stop offset="1" stop-color="#fff"/></linearGradient><filter id="a" filterUnits="objectBoundingBox" x="0%" y="0%" width="100%" height="100%"><feColorMatrix in="SourceGraphic" values="0 0 0 0 1 0 0 0 0 1 0 0 0 0 1 0 0 0 1 0"/></filter><mask id="y"><g filter="url(#a)"><path fill-opacity=".1" d="M0 0h128v128H0z"/></g></mask><clipPath id="b"><path d="M0 0h192v152H0z"/></clipPath><g id="g" clip-path="url(#b)"><path d="M30 29c-1.043.207-2 .828-2 2v34s.004 1.578.992 2.75a5.894 5.894 0 0 0-2.226 2.27 6.191 6.191 0 0 0 0 5.96 5.864 5.864 0 0 0 2.222 2.262C28.422 78.836 28 79.707 28 81v34c0 .879.906 2 2 2h8v-1l-2-5h5.156A4.858 4.858 0 0 0 46 106.156V81.844A4.858 4.858 0 0 0 41.156 77H32l-.086.008c-.047-.004-.09-.008-.137-.008-1.332 0-2.574-.738-3.257-1.98a4.213 4.213 0 0 1 0-4.04c.683-1.242 1.925-1.98 3.257-1.98.04 0 .078-.004.121-.008.036.004.067.008.102.008h9.156A4.858 4.858 0 0 0 46 64.156V39.844A4.858 4.858 0 0 0 41.156 35H36v-4c0-2 2-2 2-2l.031-1H35zm2.844 8h8.312A2.82 2.82 0 0 1 44 39.844v24.312A2.82 2.82 0 0 1 41.156 67h-8.312c-.032 0-.063-.008-.098-.012-.437-.023-.73-.324-.73-.773v-28.43c0-.45.293-.75.73-.777.035 0 .066-.008.098-.008zm0 42h8.312A2.82 2.82 0 0 1 44 81.844v24.312A2.82 2.82 0 0 1 41.156 109h-8.312c-.043 0-.086-.012-.133-.016-.426-.03-.711-.328-.711-.77V79.786c0-.453.3-.715.742-.773.035-.004.067-.012.102-.012zm0 0"/></g><linearGradient id="u" gradientUnits="userSpaceOnUse" x1="114.137" y1="221.436" x2="120" y2="211.922" gradientTransform="translate(0 -172)"><stop offset="0" stop-color="#dbdad9"/><stop offset="1" stop-color="#f2f1ef"/></linearGradient><linearGradient id="v" gradientUnits="userSpaceOnUse" x1="82.75" y1="217.375" x2="99.5" y2="192.75" gradientTransform="translate(0 -172)"><stop offset="0" stop-color="#fff"/><stop offset="1" stop-color="#f6f5f4"/></linearGradient><linearGradient id="e" gradientUnits="userSpaceOnUse" x1="69.009" y1="487.904" x2="180.208" y2="487.904" gradientTransform="translate(-60 -378)"><stop offset="0" stop-color="#c0bfbc"/><stop offset=".065" stop-color="#dcdbd8"/><stop offset=".11" stop-color="#c0bfbc"/><stop offset=".846" stop-color="#c0bfbc"/><stop offset=".923" stop-color="#deddda"/><stop offset="1" stop-color="#c0bfbc"/></linearGradient><linearGradient id="f" gradientUnits="userSpaceOnUse" x1="144" y1="-84" x2="144" y2="366.066" gradientTransform="matrix(.25 0 0 .25 4 43)"><stop offset="0" stop-color="#edece9"/><stop offset="1" stop-color="#fff"/></linearGradient><mask id="h"><g filter="url(#a)"><path fill-opacity=".1" d="M0 0h128v128H0z"/></g></mask><clipPath id="c"><path d="M0 0h192v152H0z"/></clipPath><linearGradient id="i" gradientUnits="userSpaceOnUse" x1="114.137" y1="221.436" x2="120" y2="211.922" gradientTransform="translate(0 -172)"><stop offset="0" stop-color="#dbdad9"/><stop offset="1" stop-color="#f2f1ef"/></linearGradient><linearGradient id="j" gradientUnits="userSpaceOnUse" x1="82.75" y1="217.375" x2="99.5" y2="192.75" gradientTransform="translate(0 -172)"><stop offset="0" stop-color="#fff"/><stop offset="1" stop-color="#f6f5f4"/></linearGradient><clipPath id="d"><path d="M0 0h128v128H0z"/></clipPath><g id="l" clip-path="url(#d)"><path d="M16 40a7.98 7.98 0 0 0-8 8v60c0 4.434 3.566 8 8 8h96c4.434 0 8-3.566 8-8V48c0-4.434-3.566-8-8-8zm0 0" fill="#813d9c"/><path d="M16 38a7.98 7.98 0 0 0-8 8v60c0 4.434 3.566 8 8 8h96c4.434 0 8-3.566 8-8V46c0-4.434-3.566-8-8-8zm0 0" fill="url(#e)"/><path d="M64 22v86H16a7.98 7.98 0 0 1-8-8V30c0-4.434 3.566-8 8-8zm0 0" fill="url(#f)"/><path d="M42.227 76.617c-2.164 2.113-4.164 1.492-5.282.375L26.031 66.078V12h4v52.422zm0 0" fill="#9a9996"/><use xlink:href="#g" transform="translate(-8 -16)" mask="url(#h)"/><path d="M42.195 35.383c-2.164-2.113-4.164-1.492-5.28-.375L26 45.922V100h4V47.578zm0 0" fill="#9a9996"/><path d="M23.777 61c-1.707 0-3.28-.953-4.136-2.5a5.212 5.212 0 0 1 0-5c.855-1.547 2.43-2.5 4.136-2.5" fill="none" stroke-width="2" stroke-linecap="round" stroke="#813d9c"/><path d="M37 63.27v27.46A2.269 2.269 0 0 1 34.73 93h-9.46A2.269 2.269 0 0 1 23 90.73V63.27A2.269 2.269 0 0 1 25.27 61h9.46A2.269 2.269 0 0 1 37 63.27zm0 0" fill="#fff" fill-opacity=".441"/><path d="M37 89.156V64.844A3.846 3.846 0 0 0 33.156 61h-8.312A3.846 3.846 0 0 0 21 64.844v24.312A3.846 3.846 0 0 0 24.844 93h8.312A3.846 3.846 0 0 0 37 89.156zm0 0" fill="none" stroke-width="2" stroke-linecap="round" stroke="#813d9c"/><path d="M37 21.27v27.46A2.269 2.269 0 0 1 34.73 51h-9.46A2.269 2.269 0 0 1 23 48.73V21.27A2.269 2.269 0 0 1 25.27 19h9.46A2.269 2.269 0 0 1 37 21.27zm0 0" fill="#fff" fill-opacity=".441"/><path d="M37 47.156V22.844A3.846 3.846 0 0 0 33.156 19h-8.312A3.846 3.846 0 0 0 21 22.844v24.312A3.846 3.846 0 0 0 24.844 51h8.312A3.846 3.846 0 0 0 37 47.156zm0 0" fill="none" stroke-width="2" stroke-linecap="round" stroke="#813d9c"/><path d="M22 12c-1.063 0-2 .828-2 2v34s0 4 4 4h4v-2h-3.2c-.468 0-.784-.316-.784-.785v-28.43c0-.469.316-.785.785-.785H28v-6c0-2 2-2 2-2zm6 48h-4s-4 0-4 4v34c0 .879.906 2 2 2h8s-2.02 0-2-2v-6h-3.215c-.469 0-.785-.316-.785-.785v-28.43c0-.469.32-.738.785-.785L28 61.875zm0 0" fill="#813d9c"/><path d="M64 22v86h48c4.434 0 8-3.566 8-8V30c0-4.434-3.566-8-8-8zm0 0" fill="url(#i)"/><path d="M64 22v86l41.578-15.84C108.215 91.453 110 88.715 110 86V12.5c0-4.656-3.633-6.242-8-4.5zm0 0" fill="url(#j)"/></g><clipPath id="k"><path d="M0 0h128v128H0z"/></clipPath><g id="m" clip-path="url(#k)" filter="url(#a)"><use xlink:href="#l"/></g><mask id="x"><use xlink:href="#m"/></mask><mask id="r"><g filter="url(#a)"><path fill-opacity=".8" d="M0 0h128v128H0z"/></g></mask><linearGradient id="o" gradientUnits="userSpaceOnUse" x1="300" y1="235" x2="428" y2="235" gradientTransform="matrix(0 .37 -.98462 0 295.385 -30.36)"><stop offset="0" stop-color="#f9f06b"/><stop offset="1" stop-color="#f5c211"/></linearGradient><clipPath id="n"><path d="M0 0h128v128H0z"/></clipPath><g id="q" clip-path="url(#n)"><path d="M128 80.64V128H0V80.64zm0 0" fill="url(#o)"/><path d="M13.309 80.64L60.664 128H81.88l-47.36-47.36zm42.421 0L103.094 128h21.215L76.945 80.64zm42.43 0L128 110.48V89.27l-8.629-8.63zM0 88.548v21.215L18.238 128h21.215zm0 0"/></g><clipPath id="p"><path d="M0 0h128v128H0z"/></clipPath><g id="w" clip-path="url(#p)"><use xlink:href="#q" mask="url(#r)"/></g></defs><path d="M16 40a7.98 7.98 0 0 0-8 8v60c0 4.434 3.566 8 8 8h96c4.434 0 8-3.566 8-8V48c0-4.434-3.566-8-8-8zm0 0" fill="#813d9c"/><path d="M16 38a7.98 7.98 0 0 0-8 8v60c0 4.434 3.566 8 8 8h96c4.434 0 8-3.566 8-8V46c0-4.434-3.566-8-8-8zm0 0" fill="url(#s)"/><path d="M64 22v86H16a7.98 7.98 0 0 1-8-8V30c0-4.434 3.566-8 8-8zm0 0" fill="url(#t)"/><path d="M64 22v86h48c4.434 0 8-3.566 8-8V30c0-4.434-3.566-8-8-8zm0 0" fill="url(#u)"/><path d="M64 22v86l41.578-15.84C108.215 91.453 110 88.715 110 86V12.5c0-4.656-3.633-6.242-8-4.5zm0 0" fill="url(#v)"/><use xlink:href="#w" mask="url(#x)"/><path d="M42.227 76.617c-2.164 2.113-4.164 1.492-5.282.375L26.031 66.078V12h4v52.422zm0 0" fill="#9a9996"/><use mask="url(#y)" transform="translate(-8 -16)" xlink:href="#g"/><path d="M42.195 35.383c-2.164-2.113-4.164-1.492-5.28-.375L26 45.922V100h4V47.578zm0 0" fill="#9a9996"/><path d="M23.777 61c-1.707 0-3.28-.953-4.136-2.5a5.212 5.212 0 0 1 0-5c.855-1.547 2.43-2.5 4.136-2.5" fill="none" stroke-width="2" stroke-linecap="round" stroke="#813d9c"/><path d="M37 63.27v27.46A2.269 2.269 0 0 1 34.73 93h-9.46A2.269 2.269 0 0 1 23 90.73V63.27A2.269 2.269 0 0 1 25.27 61h9.46A2.269 2.269 0 0 1 37 63.27zm0 0" fill="#fff" fill-opacity=".441"/><path d="M37 89.156V64.844A3.846 3.846 0 0 0 33.156 61h-8.312A3.846 3.846 0 0 0 21 64.844v24.312A3.846 3.846 0 0 0 24.844 93h8.312A3.846 3.846 0 0 0 37 89.156zm0 0" fill="none" stroke-width="2" stroke-linecap="round" stroke="#813d9c"/><path d="M37 21.27v27.46A2.269 2.269 0 0 1 34.73 51h-9.46A2.269 2.269 0 0 1 23 48.73V21.27A2.269 2.269 0 0 1 25.27 19h9.46A2.269 2.269 0 0 1 37 21.27zm0 0" fill="#fff" fill-opacity=".441"/><path d="M37 47.156V22.844A3.846 3.846 0 0 0 33.156 19h-8.312A3.846 3.846 0 0 0 21 22.844v24.312A3.846 3.846 0 0 0 24.844 51h8.312A3.846 3.846 0 0 0 37 47.156zm0 0" fill="none" stroke-width="2" stroke-linecap="round" stroke="#813d9c"/><path d="M22 12c-1.063 0-2 .828-2 2v34s0 4 4 4h4v-2h-3.2c-.468 0-.784-.316-.784-.785v-28.43c0-.469.316-.785.785-.785H28v-6c0-2 2-2 2-2zm6 48h-4s-4 0-4 4v34c0 .879.906 2 2 2h8s-2.02 0-2-2v-6h-3.215c-.469 0-.785-.316-.785-.785v-28.43c0-.469.32-.738.785-.785L28 61.875zm0 0" fill="#813d9c"/></svg>